Patient4_TMGait_0pt3_02_left_05_GRF.mot
version=1
nRows=45
nColumns=19
inDegrees=no
endheader
time	F1x	F1y	F1z	M1x	M1y	M1z	F2x	F2y	F2z	M2x	M2y	M2z	EC1x	EC1y	EC1z	EC2x	EC2y	EC2z
9.26	-2.417	-2.8673	3.2455	0.42337	-3.4645	-4.4525	-25.5896	758.9375	-45.3793	269.098	57.2312	763.1516	-0.0592	0.0182	-0.0073	-0.0462	0.0165	0.9585
9.281	-1.7889	-1.8888	2.2738	0.23434	-2.499	-2.9499	-22.4269	750.2859	-43.81	267.031	54.6884	750.7708	-0.0592	0.0182	-0.0073	-0.0462	0.0165	0.9585
9.302	-1.2465	-1.0356	1.4295	0.070797	-1.6625	-1.6462	-19.2839	743.287	-42.2971	265.5726	52.0752	739.4435	-0.0592	0.0182	-0.0073	-0.0462	0.0165	0.9585
9.323	-0.82301	-0.36706	0.7725	-0.058844	-1.0122	-0.62069	-16.6954	739.7238	-41.0411	265.2787	49.7742	731.2593	-0.0592	0.0182	-0.0073	-0.0462	0.0165	0.9585
9.344	-0.52215	0.10899	0.30678	-0.15258	-0.55136	0.12473	-15.0851	741.1611	-40.1815	266.6684	48.0964	728.0254	-0.0592	0.0182	-0.0073	-0.0462	0.0165	0.9585
9.365	-0.33248	0.41297	0.0071882	-0.21318	-0.25661	0.62109	-14.5819	748.728	-39.7418	270.1541	47.145	730.9368	-0.0592	0.0182	-0.0073	-0.0462	0.0165	0.9585
9.386	-0.23826	0.57525	-0.16355	-0.24371	-0.093478	0.90907	-14.9787	762.9777	-39.6422	275.9741	46.8014	740.4353	-0.0592	0.0182	-0.0073	-0.0462	0.0165	0.9585
9.407	-0.22407	0.61845	-0.24432	-0.24343	-0.025468	1.026	-15.8938	783.632	-39.7735	284.0681	46.8449	756.0619	-0.0592	0.0182	-0.0073	-0.0462	0.0165	0.9585
9.428	-0.27598	0.54893	-0.26664	-0.20615	-0.021588	0.99286	-16.9122	809.3108	-40.0197	293.9583	47.0225	776.3092	-0.0592	0.0182	-0.0073	-0.0462	0.0165	0.9585
9.449	-0.38168	0.35661	-0.25609	-0.11989	-0.057961	0.80678	-17.6354	837.3812	-40.26	304.6862	47.0716	798.546	-0.0592	0.0182	-0.0073	-0.0462	0.0165	0.9585
9.47	-0.53007	0.0053308	-0.23385	0.03361	-0.11489	0.44054	-17.7358	864.0418	-40.3994	314.8438	46.7734	819.1403	-0.0592	0.0182	-0.0073	-0.0462	0.0165	0.9585
9.491	-0.70189	-0.54983	-0.21465	0.27259	-0.1768	-0.14695	-17.018	884.7986	-40.3844	322.7562	45.9943	833.9252	-0.0592	0.0182	-0.0073	-0.0462	0.0165	0.9585
9.512	-0.86973	-1.3461	-0.20699	0.6096	-0.22941	-0.99247	-15.4404	895.4725	-40.1701	326.8642	44.6708	839.1291	-0.0592	0.0182	-0.0073	-0.0462	0.0165	0.9585
9.533	-0.99787	-2.3972	-0.21745	1.0463	-0.25491	-2.1092	-13.0584	893.3853	-39.7042	326.1741	42.776	832.4244	-0.0592	0.0182	-0.0073	-0.0462	0.0165	0.9585
9.554	-1.0345	-3.6622	-0.25423	1.5628	-0.22343	-3.4565	-9.9443	878.1553	-38.9411	320.5565	40.3066	813.596	-0.0592	0.0182	-0.0073	-0.0462	0.0165	0.9585
9.575	-0.89993	-5.0042	-0.32812	2.1015	-0.088752	-4.8953	-6.1541	851.7828	-37.8609	310.7727	37.2872	784.5794	-0.0592	0.0182	-0.0073	-0.0462	0.0165	0.9585
9.596	-0.48664	-6.1417	-0.44997	2.5477	0.20793	-6.1364	-1.76	818.0827	-36.501	298.2557	33.8058	748.924	-0.0592	0.0182	-0.0073	-0.0462	0.0165	0.9585
9.617	0.33298	-6.6033	-0.63153	2.7104	0.73215	-6.6955	3.1036	781.7475	-34.9699	284.758	30.0328	710.9399	-0.0592	0.0182	-0.0073	-0.0462	0.0165	0.9585
9.638	1.6877	-5.6902	-0.87787	2.3064	1.541	-5.8481	8.2296	747.3462	-33.4149	271.9809	26.193	674.794	-0.0592	0.0182	-0.0073	-0.0462	0.0165	0.9585
9.659	3.679	-2.4626	-1.1742	0.95375	2.6584	-2.6166	13.3725	718.4652	-31.9782	261.2589	22.5166	643.7425	-0.0592	0.0182	-0.0073	-0.0462	0.0165	0.9585
9.68	6.3281	4.2239	-1.4756	-1.8109	4.044	4.1903	18.2947	697.0955	-30.762	253.3334	19.1896	619.5862	-0.0592	0.0182	-0.0073	-0.0462	0.0165	0.9585
9.701	9.5013	15.5926	-1.696	-6.481	5.5517	15.8593	22.7656	683.3249	-29.8062	248.2354	16.3305	602.435	-0.0592	0.0182	-0.0073	-0.0462	0.0165	0.9585
9.722	12.8137	32.6935	-1.698	-13.4765	6.8786	33.5088	26.5553	675.4152	-29.1008	245.3098	14.0069	590.8181	-0.0592	0.0182	-0.0073	-0.0462	0.0165	0.9585
9.743	15.4807	56.0549	-1.2972	-23.0004	7.5108	57.7368	29.4427	670.2663	-28.6009	243.3865	12.2522	582.1148	-0.0592	0.0182	-0.0073	-0.0462	0.0165	0.9585
9.764	16.452	85.3932	-0.28977	-34.9213	6.8106	88.3223	31.2294	664.1591	-28.2378	241.0602	11.0726	573.205	-0.0592	0.0182	-0.0073	-0.0462	0.0165	0.9585
9.785	15.2287	119.913	1.5111	-48.8918	4.3827	124.5084	31.7908	653.6237	-27.9332	237.0197	10.4421	561.1926	-0.0592	0.0182	-0.0073	-0.0462	0.0165	0.9585
9.806	11.962	158.4433	4.1846	-64.4171	0.2045	165.0771	31.1334	636.1876	-27.6104	230.3379	10.2919	544.0122	-0.0592	0.0182	-0.0073	-0.0462	0.0165	0.9585
9.827	7.1326	199.2767	7.5416	-80.812	-5.3272	208.195	29.4026	610.8713	-27.1784	220.6655	10.4934	520.8213	-0.0592	0.0182	-0.0073	-0.0462	0.0165	0.9585
9.848	1.4176	240.439	11.0986	-97.3106	-11.4122	251.6981	26.8626	578.3767	-26.5489	208.2999	10.8793	492.1457	-0.0592	0.0182	-0.0073	-0.0462	0.0165	0.9585
9.869	-4.492	280.431	14.4085	-113.3387	-17.2949	293.9	23.8491	540.7777	-25.6795	194.0571	11.2931	459.613	-0.0592	0.0182	-0.0073	-0.0462	0.0165	0.9585
9.89	-10.0559	318.421	17.2118	-128.575	-22.4891	333.8519	20.6945	500.7958	-24.5858	178.9893	11.6233	425.365	-0.0592	0.0182	-0.0073	-0.0462	0.0165	0.9585
9.911	-14.8343	353.7497	19.4116	-142.7517	-26.7257	370.8235	17.6326	460.9774	-23.3198	164.0707	11.8162	391.3984	-0.0592	0.0182	-0.0073	-0.0462	0.0165	0.9585
9.932	-18.4818	385.6086	21.0452	-155.5279	-29.9177	403.9685	14.7732	423.2497	-21.9692	150.0236	11.8862	359.2201	-0.0592	0.0182	-0.0073	-0.0462	0.0165	0.9585
9.953	-20.8309	413.2268	22.1879	-166.5721	-32.0912	432.5222	12.15	388.8859	-20.6394	137.3048	11.8902	329.8265	-0.0592	0.0182	-0.0073	-0.0462	0.0165	0.9585
9.974	-21.9254	436.1875	22.8991	-175.6979	-33.3368	456.113	9.7836	358.6124	-19.4164	126.1547	11.8764	303.7929	-0.0592	0.0182	-0.0073	-0.0462	0.0165	0.9585
9.995	-21.9678	454.5755	23.2343	-182.9261	-33.7938	474.8824	7.7318	332.7006	-18.3396	116.6447	11.8442	281.3349	-0.0592	0.0182	-0.0073	-0.0462	0.0165	0.9585
10.016	-21.2235	468.946	23.2766	-188.4787	-33.643	489.4284	6.1068	311.0199	-17.3994	108.7064	11.7382	262.3423	-0.0592	0.0182	-0.0073	-0.0462	0.0165	0.9585
10.037	-19.9515	480.2054	23.1467	-192.727	-33.0966	500.6742	5.0354	293.1136	-16.558	102.1624	11.484	246.4438	-0.0592	0.0182	-0.0073	-0.0462	0.0165	0.9585
10.058	-18.3678	489.4488	22.966	-196.1243	-32.3498	509.7089	4.6037	278.2695	-15.773	96.7525	11.0268	233.0603	-0.0592	0.0182	-0.0073	-0.0462	0.0165	0.9585
10.079	-16.6266	497.7699	22.8098	-199.1261	-31.5292	517.606	4.8226	265.5876	-15.0084	92.156	10.3495	221.4651	-0.0592	0.0182	-0.0073	-0.0462	0.0165	0.9585
10.1	-14.8309	506.0439	22.7109	-202.0995	-30.7044	525.2287	5.6036	254.1155	-14.2407	88.0365	9.4803	210.8992	-0.0592	0.0182	-0.0073	-0.0462	0.0165	0.9585
10.121	-13.0615	514.7602	22.685	-205.25	-29.9223	533.0826	6.7758	243.0087	-13.4617	84.0946	8.4828	200.7028	-0.0592	0.0182	-0.0073	-0.0462	0.0165	0.9585
10.142	-11.4029	524.0373	22.7332	-208.6226	-29.2187	541.3325	8.1251	231.6285	-12.6816	80.1012	7.4445	190.389	-0.0592	0.0182	-0.0073	-0.0462	0.0165	0.9585
10.163	-9.9562	533.7803	22.8614	-212.1631	-28.6407	549.9461	9.4306	219.5639	-11.9266	75.9051	6.4635	179.6548	-0.0592	0.0182	-0.0073	-0.0462	0.0165	0.9585
10.184	-8.8202	543.9125	23.1094	-215.8169	-28.2659	558.8969	10.5002	206.5774	-11.2269	71.4147	5.6228	168.33	-0.0592	0.0182	-0.0073	-0.0462	0.0165	0.9585
